<svg xmlns="http://www.w3.org/2000/svg" version="1.1" xmlns:xlink="http://www.w3.org/1999/xlink" xmlns:svgjs="http://svgjs.dev/svgjs" width="1440" height="560" preserveAspectRatio="none" viewBox="0 0 1440 560"><g mask="url(&quot;#SvgjsMask1002&quot;)" fill="none"><path d="M0 4.83C36.91 -16.06 67.46 48.13 140 60.75C207.46 72.48 216.18 72.65 280 53.53C317.56 42.28 306.61 13.82 342.76 0C376.61 -12.94 381.38 0 420 0C490 0 490 0 560 0C630 0 630 0 700 0C770 0 770 0 840 0C910 0 910 0 980 0C1033.28 0 1066.45 -30.18 1086.57 0C1113.12 39.82 1077.1 69.85 1073.33 140C1069.58 209.85 1054.58 221.63 1071.54 280C1077.92 301.96 1095.17 300.66 1120 300.66C1154.4 300.66 1185.78 306.66 1190 280C1198.5 226.33 1128.54 199.81 1145.45 140C1163.54 76.03 1192.82 57.51 1260 32.44C1320.1 10.01 1339.88 56.91 1400 45C1421.77 40.69 1402.45 6.85 1423.77 0C1472.45 -15.65 1513.64 -31.75 1540 0C1571.75 38.25 1540 70 1540 140C1540 210 1540 210 1540 280C1540 350 1540 350 1540 420C1540 490 1575 525 1540 560C1505 595 1470 560 1400 560C1374.8 560 1364.41 576.99 1349.6 560C1303.39 506.99 1308.18 492.08 1277.95 420C1263.38 385.24 1270.05 346.32 1260 346.32C1249.79 346.32 1249.41 383.39 1237.42 420C1214.41 490.23 1229.84 512.5 1190 560C1171.13 582.5 1155 560 1120 560C1050 560 1050 560 980 560C919.09 560 873.91 591.45 858.18 560C838.91 521.45 915.72 480.83 910 420C906.63 384.11 873.91 394.61 840 366.55C789.32 324.61 792.23 320.77 740.83 280C722.23 265.25 720.89 255.5 700 255.5C675.97 255.5 658.16 256.87 651 280C632.7 339.12 642.93 350.63 649.09 420C655.36 490.63 700.43 521.39 675.86 560C655.89 591.39 617.93 560 560 560C490 560 490 560 420 560C350 560 350 560 280 560C210 560 210 560 140 560C72.92 560 18.75 591.92 5.83 560C-9.58 521.92 39.42 486.31 83.33 420C106.51 385 115.16 391.26 140 357.37C166.46 321.26 185.94 317.11 185.94 280C185.94 249.6 166.52 222.35 140 222.35C105.86 222.35 101.09 249.71 64.62 280C31.09 307.84 19.33 338.6 0 338.6C-12.98 338.6 0 309.3 0 280C0 210 0 210 0 140C0 72.42 -33.09 23.56 0 4.83" stroke="rgba(39, 215, 4, 0.58)" stroke-width="2"></path><path d="M840 76.09C818.81 76.09 806.21 108.7 806.21 140C806.21 167.38 819.35 193.45 840 193.45C866.24 193.45 900 168.06 900 140C900 109.38 865.7 76.09 840 76.09" stroke="rgba(39, 215, 4, 0.58)" stroke-width="2"></path><path d="M280 393.58C257.59 393.58 228.15 406.89 228.15 420C228.15 433.06 257.52 445.93 280 445.93C292.08 445.93 297.28 433 297.28 420C297.28 406.83 292.16 393.58 280 393.58" stroke="rgba(39, 215, 4, 0.58)" stroke-width="2"></path><path d="M0 125.52C63.44 119.53 70.42 131.89 140 126.79C210.42 121.63 218.58 134.6 280 105C350.13 71.2 339.72 47.53 403.1 0C409.72 -4.97 411.55 0 420 0C490 0 490 0 560 0C630 0 630 0 700 0C770 0 824.52 -32.85 840 0C857.51 37.15 809.31 74.46 765.98 140C739.31 180.34 735.87 211.75 700 211.75C657.32 211.75 653.23 177.28 608.89 140C583.23 118.42 583.84 94.03 560 94.03C537.39 94.03 516 112.03 516 140C516 201.97 537.38 207.23 560 273.91C561.13 277.23 562.9 276.55 563.5 280C575.62 349.6 567.85 351.69 585.45 420C603.92 491.69 644.07 513.6 635.63 560C631.34 583.6 597.82 560 560 560C490 560 490 560 420 560C350 560 350 560 280 560C210 560 210 560 140 560C97.22 560 54.44 581.87 54.44 560C54.44 522.64 85.48 453.45 140 441.54C198.26 428.82 220.97 517.08 280 510.74C321.22 506.31 340.49 465.5 340.49 420C340.49 373.9 312.03 372.46 280 327.55C262.1 302.46 259.99 304.04 240.63 280C189.99 217.13 203.84 179.73 140 153.73C83.53 130.73 54.09 187.3 0 182C-15.91 180.44 0 161 0 140C0 132.76 -6.56 126.14 0 125.52" stroke="rgba(39, 215, 4, 0.58)" stroke-width="2"></path><path d="M971.43 140C913.28 65.99 837.52 40.48 840 0C841.81 -29.52 910 0 980 0C1007.16 0 1032.98 -18.9 1034.33 0C1037.98 51.1 1011.41 69.78 990 140C984.25 158.87 984.66 178.18 980 178.18C975.38 178.18 983.28 155.08 971.43 140" stroke="rgba(39, 215, 4, 0.58)" stroke-width="2"></path><path d="M1190.91 140C1190.91 104 1221.19 75.12 1260 75.12C1316.19 75.12 1322.21 105.14 1380.91 140C1392.21 146.71 1388.91 158.26 1400 158.26C1418.46 158.26 1429.75 158.07 1440 140C1474.65 78.94 1452.43 52.33 1489.81 0C1502.43 -17.67 1533.38 -18.47 1540 0C1558.47 51.53 1540 70 1540 140C1540 185.65 1547.33 187.32 1540 231.3C1535.66 257.32 1516.67 256.12 1516.67 280C1516.67 300.47 1536.31 297.84 1540 320C1547.97 367.84 1540 370 1540 420C1540 455 1562.94 473.28 1540 490C1492.94 524.3 1457.43 540.54 1400 522.03C1348.84 505.54 1346.53 477.39 1322.82 420C1296.53 356.37 1322.34 344.53 1300 280C1290.93 253.79 1277.66 261.19 1260 238.52C1223.12 191.19 1190.91 185.7 1190.91 140" stroke="rgba(39, 215, 4, 0.58)" stroke-width="2"></path><path d="M420 238.82C380.99 238.82 346.32 259.18 346.32 280C346.32 300.98 380.88 322.42 420 322.42C484.38 322.42 553.33 300.93 553.33 280C553.33 259.13 484.49 238.82 420 238.82" stroke="rgba(39, 215, 4, 0.58)" stroke-width="2"></path><path d="M813.75 280C813.75 268.54 824.45 257.09 840 257.09C874.63 257.09 914.12 268.54 914.12 280C914.12 291.46 874.63 302.91 840 302.91C824.45 302.91 813.75 291.46 813.75 280" stroke="rgba(39, 215, 4, 0.58)" stroke-width="2"></path><path d="M998.06 420C1058.45 388.02 1064.08 358.03 1120 358.03C1155.54 358.03 1180.97 385.17 1180.97 420C1180.97 468.65 1151.67 473.26 1120 525C1108.83 543.26 1114.26 555.26 1095.29 560C1044.26 572.76 1037.64 560 980 560C941.82 560 903.64 581.67 903.64 560C903.64 517.75 938.81 493.24 980 432.17C986.02 423.24 988.45 425.09 998.06 420" stroke="rgba(39, 215, 4, 0.58)" stroke-width="2"></path><path d="M316.13 140C316.13 106.46 375.89 61.46 420 61.46C450.83 61.46 466 103.52 466 140C466 166.46 447.46 187.35 420 187.35C372.52 187.35 316.13 169.4 316.13 140" stroke="rgba(39, 215, 4, 0.58)" stroke-width="2"></path><path d="M560 41.79C523.84 41.79 486.32 11.17 486.32 0C486.32 -9.72 523.16 0 560 0C591.82 0 623.64 -9.51 623.64 0C623.64 11.38 592.5 41.79 560 41.79" stroke="rgba(39, 215, 4, 0.58)" stroke-width="2"></path><path d="M664.44 140C664.44 115.03 684.11 84 700 84C714.76 84 725.75 114.03 725.75 140C725.75 156.03 714 168 700 168C683.34 168 664.44 157.03 664.44 140" stroke="rgba(39, 215, 4, 0.58)" stroke-width="2"></path><path d="M980 6.09C977.92 6.09 974.62 1.83 974.62 0C974.62 -1.21 977.31 0 980 0C981.05 0 982.09 -0.75 982.09 0C982.09 2.3 981.65 6.09 980 6.09" stroke="rgba(39, 215, 4, 0.58)" stroke-width="2"></path><path d="M1236.36 140C1236.36 127.68 1246.72 117.8 1260 117.8C1279.22 117.8 1301.36 126.92 1301.36 140C1301.36 154.87 1278.35 173.7 1260 173.7C1245.85 173.7 1236.36 155.63 1236.36 140" stroke="rgba(39, 215, 4, 0.58)" stroke-width="2"></path><path d="M1362.5 280C1367.29 252.47 1380.38 234.35 1400 234.35C1421 234.35 1427.85 253.07 1443.75 280C1482.64 345.89 1522 368.1 1509.57 420C1500.12 459.45 1448.74 462.71 1400 462.71C1377.8 462.71 1372.88 445.26 1367.69 420C1354.13 353.91 1351.14 345.29 1362.5 280" stroke="rgba(39, 215, 4, 0.58)" stroke-width="2"></path><path d="M383.7 420C396.24 394.46 397.48 375.45 420 375.45C456.46 375.45 464.33 392.98 501.67 420C534.33 443.64 537.8 443.61 560 476.76C584.67 513.61 595.4 530.09 595.4 560C595.4 571.71 577.7 560 560 560C490 560 490 560 420 560C374.71 560 336.24 586.34 329.41 560C318.09 516.34 350.94 486.74 383.7 420" stroke="rgba(39, 215, 4, 0.58)" stroke-width="2"></path><path d="M1110.97 420C1110.97 417.16 1115.86 415.41 1120 415.41C1122.63 415.41 1124.52 417.42 1124.52 420C1124.52 423.6 1122.91 427.78 1120 427.78C1116.14 427.78 1110.97 423.34 1110.97 420" stroke="rgba(39, 215, 4, 0.58)" stroke-width="2"></path><path d="M103.06 560C103.06 543.87 115.04 508.85 140 508.85C186.71 508.85 246.4 546.55 246.4 560C246.4 572.12 193.2 560 140 560C121.53 560 103.06 569.44 103.06 560" stroke="rgba(39, 215, 4, 0.58)" stroke-width="2"></path><path d="M949.09 560C949.09 542.9 962.01 508.26 980 508.26C1000.8 508.26 1026.67 544.51 1026.67 560C1026.67 570.38 1003.34 560 980 560C964.55 560 949.09 568.77 949.09 560" stroke="rgba(39, 215, 4, 0.58)" stroke-width="2"></path></g><defs><mask id="SvgjsMask1002"><rect width="1440" height="560" fill="#ffffff"></rect></mask></defs></svg>