<svg xmlns="http://www.w3.org/2000/svg" version="1.1" xmlns:xlink="http://www.w3.org/1999/xlink" xmlns:svgjs="http://svgjs.dev/svgjs" width="1440" height="560" preserveAspectRatio="none" viewBox="0 0 1440 560"><g mask="url(&quot;#SvgjsMask1003&quot;)" fill="none"><rect width="1440" height="560" x="0" y="0" fill="rgba(215, 250, 194, 1)"></rect><path d="M234.8 640.49C401.45 640.47 557.81 600.34 900.06 598.05 1242.31 595.76 1384.96 323.68 1565.32 318.05" stroke="rgba(51, 194, 61, 0.58)" stroke-width="2"></path><path d="M709.87 656.41C890.45 605.57 947.99 104.69 1213.6 100.23 1479.2 95.77 1580.14 314 1717.32 318.63" stroke="rgba(51, 194, 61, 0.58)" stroke-width="2"></path><path d="M325.89 587.46C479.88 531.65 499.56 86.09 729.76 71.61 959.96 57.13 931.7 141.61 1133.64 141.61 1335.57 141.61 1435.04 71.87 1537.51 71.61" stroke="rgba(51, 194, 61, 0.58)" stroke-width="2"></path><path d="M533.11 647.45C662.97 617.31 625.06 271.62 911.08 271.28 1197.1 270.94 1469.93 492.94 1667.02 495.28" stroke="rgba(51, 194, 61, 0.58)" stroke-width="2"></path><path d="M451.97 669.21C607.32 662.47 712.36 408.97 1013.36 401.42 1314.35 393.87 1428.25 235.21 1574.74 233.42" stroke="rgba(51, 194, 61, 0.58)" stroke-width="2"></path></g><defs><mask id="SvgjsMask1003"><rect width="1440" height="560" fill="#ffffff"></rect></mask></defs></svg>