<svg xmlns="http://www.w3.org/2000/svg" version="1.1" xmlns:xlink="http://www.w3.org/1999/xlink" xmlns:svgjs="http://svgjs.dev/svgjs" width="1440" height="560" preserveAspectRatio="none" viewBox="0 0 1440 560"><g mask="url(&quot;#SvgjsMask1000&quot;)" fill="none"><rect width="1440" height="560" x="0" y="0" fill="#0e2a47"></rect><path d="M120.46 81.6L185.42 119.1L185.42 194.1L120.46 231.6L55.51 194.1L55.51 119.1zM250.37 306.6L315.32 344.1L315.32 419.1L250.37 456.6L185.42 419.1L185.42 344.1zM380.28 306.6L445.23 344.1L445.23 419.1L380.28 456.6L315.32 419.1L315.32 344.1zM315.32 419.1L380.28 456.6L380.28 531.6L315.32 569.1L250.37 531.6L250.37 456.6zM445.23 -30.9L510.19 6.6L510.19 81.6L445.23 119.1L380.28 81.6L380.28 6.6zM575.14 -30.9L640.09 6.6L640.09 81.6L575.14 119.1L510.19 81.6L510.19 6.6zM705.05 -30.9L770 6.6L770 81.6L705.05 119.1L640.09 81.6L640.09 6.6zM705.05 194.1L770 231.6L770 306.6L705.05 344.1L640.09 306.6L640.09 231.6zM770 306.6L834.96 344.1L834.96 419.1L770 456.6L705.05 419.1L705.05 344.1zM705.05 419.1L770 456.6L770 531.6L705.05 569.1L640.09 531.6L640.09 456.6zM834.95 194.1L899.91 231.6L899.91 306.6L834.95 344.1L770 306.6L770 231.6zM964.86 -30.9L1029.82 6.6L1029.82 81.6L964.86 119.1L899.91 81.6L899.91 6.6zM1224.68 419.1L1289.63 456.6L1289.63 531.6L1224.68 569.1L1159.72 531.6L1159.72 456.6zM1289.63 531.6L1354.58 569.1L1354.58 644.1L1289.63 681.6L1224.68 644.1L1224.68 569.1zM1419.54 531.6L1484.49 569.1L1484.49 644.1L1419.54 681.6L1354.59 644.1L1354.59 569.1zM1484.49 419.1L1549.45 456.6L1549.45 531.6L1484.49 569.1L1419.54 531.6L1419.54 456.6zM1549.45 531.6L1614.4 569.1L1614.4 644.1L1549.45 681.6L1484.49 644.1L1484.49 569.1z" stroke="#03305d" stroke-width="2"></path><path d="M112.96 81.6 a7.5 7.5 0 1 0 15 0 a7.5 7.5 0 1 0 -15 0zM177.92 119.1 a7.5 7.5 0 1 0 15 0 a7.5 7.5 0 1 0 -15 0zM177.92 194.1 a7.5 7.5 0 1 0 15 0 a7.5 7.5 0 1 0 -15 0zM112.96 231.6 a7.5 7.5 0 1 0 15 0 a7.5 7.5 0 1 0 -15 0zM48.01 194.1 a7.5 7.5 0 1 0 15 0 a7.5 7.5 0 1 0 -15 0zM48.01 119.1 a7.5 7.5 0 1 0 15 0 a7.5 7.5 0 1 0 -15 0zM242.87 306.6 a7.5 7.5 0 1 0 15 0 a7.5 7.5 0 1 0 -15 0zM307.82 344.1 a7.5 7.5 0 1 0 15 0 a7.5 7.5 0 1 0 -15 0zM307.82 419.1 a7.5 7.5 0 1 0 15 0 a7.5 7.5 0 1 0 -15 0zM242.87 456.6 a7.5 7.5 0 1 0 15 0 a7.5 7.5 0 1 0 -15 0zM177.92 419.1 a7.5 7.5 0 1 0 15 0 a7.5 7.5 0 1 0 -15 0zM177.92 344.1 a7.5 7.5 0 1 0 15 0 a7.5 7.5 0 1 0 -15 0zM372.78 306.6 a7.5 7.5 0 1 0 15 0 a7.5 7.5 0 1 0 -15 0zM437.73 344.1 a7.5 7.5 0 1 0 15 0 a7.5 7.5 0 1 0 -15 0zM437.73 419.1 a7.5 7.5 0 1 0 15 0 a7.5 7.5 0 1 0 -15 0zM372.78 456.6 a7.5 7.5 0 1 0 15 0 a7.5 7.5 0 1 0 -15 0zM372.78 531.6 a7.5 7.5 0 1 0 15 0 a7.5 7.5 0 1 0 -15 0zM307.82 569.1 a7.5 7.5 0 1 0 15 0 a7.5 7.5 0 1 0 -15 0zM242.87 531.6 a7.5 7.5 0 1 0 15 0 a7.5 7.5 0 1 0 -15 0zM437.73 -30.9 a7.5 7.5 0 1 0 15 0 a7.5 7.5 0 1 0 -15 0zM502.69 6.6 a7.5 7.5 0 1 0 15 0 a7.5 7.5 0 1 0 -15 0zM502.69 81.6 a7.5 7.5 0 1 0 15 0 a7.5 7.5 0 1 0 -15 0zM437.73 119.1 a7.5 7.5 0 1 0 15 0 a7.5 7.5 0 1 0 -15 0zM372.78 81.6 a7.5 7.5 0 1 0 15 0 a7.5 7.5 0 1 0 -15 0zM372.78 6.6 a7.5 7.5 0 1 0 15 0 a7.5 7.5 0 1 0 -15 0zM567.64 -30.9 a7.5 7.5 0 1 0 15 0 a7.5 7.5 0 1 0 -15 0zM632.59 6.6 a7.5 7.5 0 1 0 15 0 a7.5 7.5 0 1 0 -15 0zM632.59 81.6 a7.5 7.5 0 1 0 15 0 a7.5 7.5 0 1 0 -15 0zM567.64 119.1 a7.5 7.5 0 1 0 15 0 a7.5 7.5 0 1 0 -15 0zM697.55 -30.9 a7.5 7.5 0 1 0 15 0 a7.5 7.5 0 1 0 -15 0zM762.5 6.6 a7.5 7.5 0 1 0 15 0 a7.5 7.5 0 1 0 -15 0zM762.5 81.6 a7.5 7.5 0 1 0 15 0 a7.5 7.5 0 1 0 -15 0zM697.55 119.1 a7.5 7.5 0 1 0 15 0 a7.5 7.5 0 1 0 -15 0zM697.55 194.1 a7.5 7.5 0 1 0 15 0 a7.5 7.5 0 1 0 -15 0zM762.5 231.6 a7.5 7.5 0 1 0 15 0 a7.5 7.5 0 1 0 -15 0zM762.5 306.6 a7.5 7.5 0 1 0 15 0 a7.5 7.5 0 1 0 -15 0zM697.55 344.1 a7.5 7.5 0 1 0 15 0 a7.5 7.5 0 1 0 -15 0zM632.59 306.6 a7.5 7.5 0 1 0 15 0 a7.5 7.5 0 1 0 -15 0zM632.59 231.6 a7.5 7.5 0 1 0 15 0 a7.5 7.5 0 1 0 -15 0zM827.46 344.1 a7.5 7.5 0 1 0 15 0 a7.5 7.5 0 1 0 -15 0zM827.46 419.1 a7.5 7.5 0 1 0 15 0 a7.5 7.5 0 1 0 -15 0zM762.5 456.6 a7.5 7.5 0 1 0 15 0 a7.5 7.5 0 1 0 -15 0zM697.55 419.1 a7.5 7.5 0 1 0 15 0 a7.5 7.5 0 1 0 -15 0zM762.5 531.6 a7.5 7.5 0 1 0 15 0 a7.5 7.5 0 1 0 -15 0zM697.55 569.1 a7.5 7.5 0 1 0 15 0 a7.5 7.5 0 1 0 -15 0zM632.59 531.6 a7.5 7.5 0 1 0 15 0 a7.5 7.5 0 1 0 -15 0zM632.59 456.6 a7.5 7.5 0 1 0 15 0 a7.5 7.5 0 1 0 -15 0zM827.45 194.1 a7.5 7.5 0 1 0 15 0 a7.5 7.5 0 1 0 -15 0zM892.41 231.6 a7.5 7.5 0 1 0 15 0 a7.5 7.5 0 1 0 -15 0zM892.41 306.6 a7.5 7.5 0 1 0 15 0 a7.5 7.5 0 1 0 -15 0zM827.45 344.1 a7.5 7.5 0 1 0 15 0 a7.5 7.5 0 1 0 -15 0zM957.36 -30.9 a7.5 7.5 0 1 0 15 0 a7.5 7.5 0 1 0 -15 0zM1022.32 6.6 a7.5 7.5 0 1 0 15 0 a7.5 7.5 0 1 0 -15 0zM1022.32 81.6 a7.5 7.5 0 1 0 15 0 a7.5 7.5 0 1 0 -15 0zM957.36 119.1 a7.5 7.5 0 1 0 15 0 a7.5 7.5 0 1 0 -15 0zM892.41 81.6 a7.5 7.5 0 1 0 15 0 a7.5 7.5 0 1 0 -15 0zM892.41 6.6 a7.5 7.5 0 1 0 15 0 a7.5 7.5 0 1 0 -15 0zM1217.18 419.1 a7.5 7.5 0 1 0 15 0 a7.5 7.5 0 1 0 -15 0zM1282.13 456.6 a7.5 7.5 0 1 0 15 0 a7.5 7.5 0 1 0 -15 0zM1282.13 531.6 a7.5 7.5 0 1 0 15 0 a7.5 7.5 0 1 0 -15 0zM1217.18 569.1 a7.5 7.5 0 1 0 15 0 a7.5 7.5 0 1 0 -15 0zM1152.22 531.6 a7.5 7.5 0 1 0 15 0 a7.5 7.5 0 1 0 -15 0zM1152.22 456.6 a7.5 7.5 0 1 0 15 0 a7.5 7.5 0 1 0 -15 0zM1347.08 569.1 a7.5 7.5 0 1 0 15 0 a7.5 7.5 0 1 0 -15 0zM1347.08 644.1 a7.5 7.5 0 1 0 15 0 a7.5 7.5 0 1 0 -15 0zM1282.13 681.6 a7.5 7.5 0 1 0 15 0 a7.5 7.5 0 1 0 -15 0zM1217.18 644.1 a7.5 7.5 0 1 0 15 0 a7.5 7.5 0 1 0 -15 0zM1412.04 531.6 a7.5 7.5 0 1 0 15 0 a7.5 7.5 0 1 0 -15 0zM1476.99 569.1 a7.5 7.5 0 1 0 15 0 a7.5 7.5 0 1 0 -15 0zM1476.99 644.1 a7.5 7.5 0 1 0 15 0 a7.5 7.5 0 1 0 -15 0zM1412.04 681.6 a7.5 7.5 0 1 0 15 0 a7.5 7.5 0 1 0 -15 0zM1347.09 644.1 a7.5 7.5 0 1 0 15 0 a7.5 7.5 0 1 0 -15 0zM1347.09 569.1 a7.5 7.5 0 1 0 15 0 a7.5 7.5 0 1 0 -15 0zM1476.99 419.1 a7.5 7.5 0 1 0 15 0 a7.5 7.5 0 1 0 -15 0zM1541.95 456.6 a7.5 7.5 0 1 0 15 0 a7.5 7.5 0 1 0 -15 0zM1541.95 531.6 a7.5 7.5 0 1 0 15 0 a7.5 7.5 0 1 0 -15 0zM1412.04 456.6 a7.5 7.5 0 1 0 15 0 a7.5 7.5 0 1 0 -15 0zM1606.9 569.1 a7.5 7.5 0 1 0 15 0 a7.5 7.5 0 1 0 -15 0zM1606.9 644.1 a7.5 7.5 0 1 0 15 0 a7.5 7.5 0 1 0 -15 0zM1541.95 681.6 a7.5 7.5 0 1 0 15 0 a7.5 7.5 0 1 0 -15 0z" fill="#03305d"></path><path d="M24.32 -36.13L67.62 -11.13L67.62 38.87L24.32 63.87L-18.98 38.87L-18.98 -11.13zM67.62 38.87L110.93 63.87L110.93 113.87L67.62 138.87L24.32 113.87L24.32 63.87zM67.62 188.87L110.93 213.87L110.93 263.87L67.62 288.87L24.32 263.87L24.32 213.87zM24.32 263.87L67.62 288.87L67.62 338.87L24.32 363.87L-18.98 338.87L-18.98 288.87zM67.62 338.87L110.93 363.87L110.93 413.87L67.62 438.87L24.32 413.87L24.32 363.87zM67.62 488.87L110.93 513.87L110.93 563.87L67.62 588.87L24.32 563.87L24.32 513.87zM154.23 38.87L197.53 63.87L197.53 113.87L154.23 138.87L110.93 113.87L110.93 63.87zM110.93 113.87L154.23 138.87L154.23 188.87L110.93 213.87L67.62 188.87L67.62 138.87zM154.23 188.87L197.53 213.87L197.53 263.87L154.23 288.87L110.93 263.87L110.93 213.87zM154.23 338.87L197.53 363.87L197.53 413.87L154.23 438.87L110.93 413.87L110.93 363.87zM110.93 413.87L154.23 438.87L154.23 488.87L110.93 513.87L67.62 488.87L67.62 438.87zM154.23 488.87L197.53 513.87L197.53 563.87L154.23 588.87L110.93 563.87L110.93 513.87zM197.53 -36.13L240.83 -11.13L240.83 38.87L197.53 63.87L154.23 38.87L154.23 -11.13zM197.53 113.87L240.83 138.87L240.83 188.87L197.53 213.87L154.23 188.87L154.23 138.87zM197.53 263.87L240.83 288.87L240.83 338.87L197.53 363.87L154.23 338.87L154.23 288.87zM240.83 338.87L284.13 363.87L284.13 413.87L240.83 438.87L197.53 413.87L197.53 363.87zM284.13 -36.13L327.44 -11.13L327.44 38.87L284.13 63.87L240.83 38.87L240.83 -11.13zM327.44 188.87L370.74 213.87L370.74 263.87L327.44 288.87L284.13 263.87L284.13 213.87zM284.13 263.87L327.44 288.87L327.44 338.87L284.13 363.87L240.83 338.87L240.83 288.87zM327.44 338.87L370.74 363.87L370.74 413.87L327.44 438.87L284.13 413.87L284.13 363.87zM284.13 413.87L327.44 438.87L327.44 488.87L284.13 513.87L240.83 488.87L240.83 438.87zM327.44 488.87L370.74 513.87L370.74 563.87L327.44 588.87L284.13 563.87L284.13 513.87zM414.04 188.87L457.35 213.87L457.35 263.87L414.04 288.87L370.74 263.87L370.74 213.87zM370.74 263.87L414.04 288.87L414.04 338.87L370.74 363.87L327.44 338.87L327.44 288.87zM414.04 338.87L457.35 363.87L457.35 413.87L414.04 438.87L370.74 413.87L370.74 363.87zM414.04 488.87L457.35 513.87L457.35 563.87L414.04 588.87L370.74 563.87L370.74 513.87zM500.65 38.87L543.95 63.87L543.95 113.87L500.65 138.87L457.35 113.87L457.35 63.87zM457.35 113.87L500.65 138.87L500.65 188.87L457.35 213.87L414.04 188.87L414.04 138.87zM500.65 188.87L543.95 213.87L543.95 263.87L500.65 288.87L457.35 263.87L457.35 213.87zM457.35 263.87L500.65 288.87L500.65 338.87L457.35 363.87L414.04 338.87L414.04 288.87zM587.25 188.87L630.56 213.87L630.56 263.87L587.25 288.87L543.95 263.87L543.95 213.87zM543.95 263.87L587.25 288.87L587.25 338.87L543.95 363.87L500.65 338.87L500.65 288.87zM587.25 488.87L630.56 513.87L630.56 563.87L587.25 588.87L543.95 563.87L543.95 513.87zM630.56 -36.13L673.86 -11.13L673.86 38.87L630.56 63.87L587.25 38.87L587.25 -11.13zM630.56 263.87L673.86 288.87L673.86 338.87L630.56 363.87L587.25 338.87L587.25 288.87zM717.16 -36.13L760.46 -11.13L760.46 38.87L717.16 63.87L673.86 38.87L673.86 -11.13zM760.46 38.87L803.77 63.87L803.77 113.87L760.46 138.87L717.16 113.87L717.16 63.87zM803.77 -36.13L847.07 -11.13L847.07 38.87L803.77 63.87L760.46 38.87L760.46 -11.13zM803.77 113.87L847.07 138.87L847.07 188.87L803.77 213.87L760.46 188.87L760.46 138.87zM847.07 188.87L890.37 213.87L890.37 263.87L847.07 288.87L803.77 263.87L803.77 213.87zM847.07 338.87L890.37 363.87L890.37 413.87L847.07 438.87L803.77 413.87L803.77 363.87zM847.07 488.87L890.37 513.87L890.37 563.87L847.07 588.87L803.77 563.87L803.77 513.87zM890.37 -36.13L933.67 -11.13L933.67 38.87L890.37 63.87L847.07 38.87L847.07 -11.13zM933.67 38.87L976.98 63.87L976.98 113.87L933.67 138.87L890.37 113.87L890.37 63.87zM890.37 263.87L933.67 288.87L933.67 338.87L890.37 363.87L847.07 338.87L847.07 288.87zM933.67 338.87L976.98 363.87L976.98 413.87L933.67 438.87L890.37 413.87L890.37 363.87zM890.37 413.87L933.67 438.87L933.67 488.87L890.37 513.87L847.07 488.87L847.07 438.87zM933.67 488.87L976.98 513.87L976.98 563.87L933.67 588.87L890.37 563.87L890.37 513.87zM976.98 -36.13L1020.28 -11.13L1020.28 38.87L976.98 63.87L933.67 38.87L933.67 -11.13zM1020.28 188.87L1063.58 213.87L1063.58 263.87L1020.28 288.87L976.98 263.87L976.98 213.87zM976.98 263.87L1020.28 288.87L1020.28 338.87L976.98 363.87L933.67 338.87L933.67 288.87zM1020.28 488.87L1063.58 513.87L1063.58 563.87L1020.28 588.87L976.98 563.87L976.98 513.87zM1063.58 -36.13L1106.88 -11.13L1106.88 38.87L1063.58 63.87L1020.28 38.87L1020.28 -11.13zM1063.58 113.87L1106.88 138.87L1106.88 188.87L1063.58 213.87L1020.28 188.87L1020.28 138.87zM1106.88 188.87L1150.18 213.87L1150.18 263.87L1106.88 288.87L1063.58 263.87L1063.58 213.87zM1063.58 263.87L1106.88 288.87L1106.88 338.87L1063.58 363.87L1020.28 338.87L1020.28 288.87zM1063.58 413.87L1106.88 438.87L1106.88 488.87L1063.58 513.87L1020.28 488.87L1020.28 438.87zM1193.49 38.87L1236.79 63.87L1236.79 113.87L1193.49 138.87L1150.18 113.87L1150.18 63.87zM1150.18 113.87L1193.49 138.87L1193.49 188.87L1150.18 213.87L1106.88 188.87L1106.88 138.87zM1193.49 188.87L1236.79 213.87L1236.79 263.87L1193.49 288.87L1150.18 263.87L1150.18 213.87zM1150.18 263.87L1193.49 288.87L1193.49 338.87L1150.18 363.87L1106.88 338.87L1106.88 288.87zM1193.49 338.87L1236.79 363.87L1236.79 413.87L1193.49 438.87L1150.18 413.87L1150.18 363.87zM1236.79 -36.13L1280.09 -11.13L1280.09 38.87L1236.79 63.87L1193.49 38.87L1193.49 -11.13zM1236.79 413.87L1280.09 438.87L1280.09 488.87L1236.79 513.87L1193.49 488.87L1193.49 438.87zM1366.7 38.87L1410 63.87L1410 113.87L1366.7 138.87L1323.39 113.87L1323.39 63.87zM1323.39 113.87L1366.7 138.87L1366.7 188.87L1323.39 213.87L1280.09 188.87L1280.09 138.87zM1366.7 338.87L1410 363.87L1410 413.87L1366.7 438.87L1323.39 413.87L1323.39 363.87zM1410 -36.13L1453.3 -11.13L1453.3 38.87L1410 63.87L1366.7 38.87L1366.7 -11.13zM1410 113.87L1453.3 138.87L1453.3 188.87L1410 213.87L1366.7 188.87L1366.7 138.87zM1410 263.87L1453.3 288.87L1453.3 338.87L1410 363.87L1366.7 338.87L1366.7 288.87zM1410 413.87L1453.3 438.87L1453.3 488.87L1410 513.87L1366.7 488.87L1366.7 438.87zM1453.3 488.87L1496.61 513.87L1496.61 563.87L1453.3 588.87L1410 563.87L1410 513.87z" stroke="rgba(6, 80, 156, 0.93)" stroke-width="2"></path></g><defs><mask id="SvgjsMask1000"><rect width="1440" height="560" fill="#ffffff"></rect></mask></defs></svg>