<svg xmlns="http://www.w3.org/2000/svg" version="1.1" xmlns:xlink="http://www.w3.org/1999/xlink" xmlns:svgjs="http://svgjs.dev/svgjs" width="1440" height="250" preserveAspectRatio="none" viewBox="0 0 1440 250"><g mask="url(&quot;#SvgjsMask1000&quot;)" fill="none"><path d="M39 250L289 0L502 0L252 250z" fill="url(&quot;#SvgjsLinearGradient1001&quot;)"></path><path d="M238.60000000000002 250L488.6 0L547.1 0L297.1 250z" fill="url(&quot;#SvgjsLinearGradient1001&quot;)"></path><path d="M518.2 250L768.2 0L997.7 0L747.7 250z" fill="url(&quot;#SvgjsLinearGradient1001&quot;)"></path><path d="M753.8000000000001 250L1003.8000000000001 0L1209.3000000000002 0L959.3000000000001 250z" fill="url(&quot;#SvgjsLinearGradient1001&quot;)"></path><path d="M1395 250L1145 0L930.5 0L1180.5 250z" fill="url(&quot;#SvgjsLinearGradient1002&quot;)"></path><path d="M1164.4 250L914.4000000000001 0L585.9000000000001 0L835.9000000000001 250z" fill="url(&quot;#SvgjsLinearGradient1002&quot;)"></path><path d="M958.8 250L708.8 0L569.3 0L819.3 250z" fill="url(&quot;#SvgjsLinearGradient1002&quot;)"></path><path d="M706.1999999999999 250L456.19999999999993 0L184.69999999999993 0L434.69999999999993 250z" fill="url(&quot;#SvgjsLinearGradient1002&quot;)"></path><path d="M1275.999593304917 250L1440 85.99959330491703L1440 250z" fill="url(&quot;#SvgjsLinearGradient1001&quot;)"></path><path d="M0 250L164.00040669508297 250L 0 85.99959330491703z" fill="url(&quot;#SvgjsLinearGradient1002&quot;)"></path></g><defs><mask id="SvgjsMask1000"><rect width="1440" height="250" fill="#ffffff"></rect></mask><linearGradient x1="0%" y1="100%" x2="100%" y2="0%" id="SvgjsLinearGradient1001"><stop stop-color="rgba(15, 70, 185, 0.2)" offset="0"></stop><stop stop-opacity="0" stop-color="rgba(15, 70, 185, 0.2)" offset="0.66"></stop></linearGradient><linearGradient x1="100%" y1="100%" x2="0%" y2="0%" id="SvgjsLinearGradient1002"><stop stop-color="rgba(15, 70, 185, 0.2)" offset="0"></stop><stop stop-opacity="0" stop-color="rgba(15, 70, 185, 0.2)" offset="0.66"></stop></linearGradient></defs></svg>