<svg xmlns="http://www.w3.org/2000/svg" version="1.1" xmlns:xlink="http://www.w3.org/1999/xlink" xmlns:svgjs="http://svgjs.dev/svgjs" width="1440" height="560" preserveAspectRatio="none" viewBox="0 0 1440 560"><g mask="url(&quot;#SvgjsMask1000&quot;)" fill="none"><rect width="1440" height="560" x="0" y="0" fill="#0e2a47"></rect><path d="M0,541.811C102.835,542.295,210.763,515.471,286.724,446.152C358.835,380.346,359.979,271.564,395.698,180.709C429.083,95.792,487.031,20.778,489.812,-70.424C492.892,-171.427,480.445,-282.654,412.1,-357.086C344.135,-431.105,233.12,-439.051,134.348,-457.547C44.297,-474.41,-50.3,-494.615,-134.927,-459.52C-216.388,-425.738,-256.519,-338.958,-313.635,-271.766C-370.123,-205.313,-436.339,-148.48,-468.304,-67.332C-506.322,29.18,-548.006,136.632,-512.968,234.265C-477.411,333.347,-375.282,389.333,-284.996,443.463C-197.022,496.207,-102.573,541.329,0,541.811" fill="#0b2239"></path><path d="M1440 1075.926C1543.344 1094.96 1659.695 1096.1309999999999 1746.3600000000001 1036.705 1832.502 977.637 1869.519 868.331 1891.62 766.248 1910.9560000000001 676.938 1861.421 590.591 1862.7269999999999 499.221 1864.3809999999999 383.514 1973.38 250.872 1900.27 161.17399999999998 1827.983 72.48700000000002 1678.366 150.029 1565.074 134.036 1472.987 121.036 1390.801 71.327 1297.926 76.14100000000002 1186.891 81.89600000000002 1055.144 79.411 983.2180000000001 164.19600000000003 911.257 249.02100000000002 964.957 379.33000000000004 947.519 489.192 929.726 601.288 824.18 716.8969999999999 879.783 815.843 936.5419999999999 916.846 1093.403 887.012 1198.489 935.798 1284.653 975.8 1346.574 1058.719 1440 1075.926" fill="#113255"></path></g><defs><mask id="SvgjsMask1000"><rect width="1440" height="560" fill="#ffffff"></rect></mask></defs></svg>