<svg xmlns="http://www.w3.org/2000/svg" version="1.1" xmlns:xlink="http://www.w3.org/1999/xlink" xmlns:svgjs="http://svgjs.dev/svgjs" width="1440" height="560" preserveAspectRatio="none" viewBox="0 0 1440 560"><g mask="url(&quot;#SvgjsMask1000&quot;)" fill="none"><path d="M -679.9545942739041,258 C -583.95,280.8 -391.95,389.4 -199.9545942739042,372 C -7.95,354.6 88.05,174.6 280.0454057260958,171 C 472.05,167.4 568.05,365.4 760.0454057260959,354 C 952.05,342.6 1104.05,107.4 1240.0454057260959,114 C 1376.04,120.6 1400.01,332.4 1440,387" stroke="rgba(51, 121, 194, 0.58)" stroke-width="2"></path><path d="M -572.4927657968111,440 C -476.49,371.6 -284.49,118.2 -92.4927657968111,98 C 99.51,77.8 195.51,341.4 387.5072342031889,339 C 579.51,336.6 675.51,96 867.5072342031889,86 C 1059.51,76 1233.01,264.4 1347.507234203189,289 C 1462.01,313.6 1421.5,225 1440,209" stroke="rgba(51, 121, 194, 0.58)" stroke-width="2"></path><path d="M -118.39465378400291,382 C -22.39,317 169.61,41.2 361.6053462159971,57 C 553.61,72.8 649.61,438.4 841.6053462159971,461 C 1033.61,483.6 1129.61,171.8 1321.605346215997,170 C 1513.61,168.2 1777.93,459.6 1801.605346215997,452 C 1825.28,444.4 1512.32,196 1440,132" stroke="rgba(51, 121, 194, 0.58)" stroke-width="2"></path><path d="M -759.3918947437726,194 C -663.39,212.8 -471.39,310.4 -279.3918947437725,288 C -87.39,265.6 8.61,75.8 200.60810525622747,82 C 392.61,88.2 488.61,295.4 680.6081052562274,319 C 872.61,342.6 1008.73,199 1160.6081052562274,200 C 1312.49,201 1384.12,299.2 1440,324" stroke="rgba(51, 121, 194, 0.58)" stroke-width="2"></path></g><defs><mask id="SvgjsMask1000"><rect width="1440" height="560" fill="#ffffff"></rect></mask></defs></svg>